<svg width="164" height="120" viewBox="0 0 164 120" fill="none" xmlns="http://www.w3.org/2000/svg">
<circle cx="82.0001" cy="59.6364" r="59.6364" fill="url(#paint0_radial_6912_52152)"/>
<circle cx="19.3816" cy="14.9094" r="5.96364" fill="#BBC3CF"/>
<circle cx="147.6" cy="93.9273" r="4.47273" fill="#BBC3CF"/>
<circle cx="18.6362" cy="102.873" r="7.45455" fill="#BBC3CF"/>
<circle cx="156.545" cy="28.3276" r="7.45455" fill="#BBC3CF"/>
<circle cx="142.382" cy="8.20012" r="5.21818" fill="#BBC3CF"/>
<g filter="url(#filter0_d_6912_52152)">
<path fill-rule="evenodd" clip-rule="evenodd" d="M89.219 64.4956C83.2625 82.5771 63.7758 92.4064 45.6943 86.4498C27.6127 80.4933 17.7835 61.0066 23.7401 42.925C29.6966 24.8435 49.1833 15.0143 67.2648 20.9709C68.7582 21.4628 70.1952 22.047 71.5718 22.7152C73.8358 23.814 74.9678 24.3635 75.7525 24.5032C76.5699 24.6487 77.0374 24.6451 77.8525 24.4871C78.635 24.3354 79.5003 23.8989 81.231 23.026L118.303 4.32649C119.558 3.69365 120.185 3.37723 120.847 3.22119C121.434 3.08285 122.039 3.03772 122.639 3.08746C123.317 3.14357 123.984 3.36341 125.319 3.80307L134.799 6.92587C137.855 7.93259 139.383 8.43596 140.354 9.4152C141.208 10.2766 141.768 11.3863 141.953 12.5854C142.163 13.9485 141.66 15.4765 140.653 18.5325L136.339 31.6283L125.426 28.0332L121.831 38.9463L110.917 35.3512L107.322 46.2644L95.8671 52.0425L95.867 52.0426C94.1364 52.9155 93.2711 53.3519 92.6841 53.8911C92.0726 54.4527 91.7918 54.8265 91.423 55.5704C91.069 56.2844 90.838 57.5213 90.3761 59.9951L90.3761 59.9952C90.0953 61.4993 89.711 63.0023 89.219 64.4956ZM55.718 63.8406C60.8089 63.8406 64.9359 59.7136 64.9359 54.6227C64.9359 49.5317 60.8089 45.4047 55.718 45.4047C50.6271 45.4047 46.5001 49.5317 46.5001 54.6227C46.5001 59.7136 50.6271 63.8406 55.718 63.8406Z" fill="url(#paint1_linear_6912_52152)"/>
</g>
<g filter="url(#filter1_b_6912_52152)">
<rect x="61.1274" y="65.6001" width="41.7455" height="41.7455" rx="20.8727" fill="#344054" fill-opacity="0.4" style="mix-blend-mode:luminosity"/>
<g clip-path="url(#clip0_6912_52152)">
<path d="M78.0866 86.4728L80.6956 89.0819L85.9138 83.8638M90.6972 86.4728C90.6972 91.2761 86.8034 95.1698 82.0002 95.1698C77.197 95.1698 73.3032 91.2761 73.3032 86.4728C73.3032 81.6696 77.197 77.7759 82.0002 77.7759C86.8034 77.7759 90.6972 81.6696 90.6972 86.4728Z" stroke="#F9FAFB" stroke-width="2.23636" stroke-linecap="round" stroke-linejoin="round"/>
</g>
</g>
<defs>
<filter id="filter0_d_6912_52152" x="20.7709" y="1.83881" width="127.374" height="92.4964" filterUnits="userSpaceOnUse" color-interpolation-filters="sRGB">
<feFlood flood-opacity="0" result="BackgroundImageFix"/>
<feColorMatrix in="SourceAlpha" type="matrix" values="0 0 0 0 0 0 0 0 0 0 0 0 0 0 0 0 0 0 127 0" result="hardAlpha"/>
<feOffset dx="2.45811" dy="2.45811"/>
<feGaussianBlur stdDeviation="1.84359"/>
<feComposite in2="hardAlpha" operator="out"/>
<feColorMatrix type="matrix" values="0 0 0 0 0 0 0 0 0 0 0 0 0 0 0 0 0 0 0.4 0"/>
<feBlend mode="normal" in2="BackgroundImageFix" result="effect1_dropShadow_6912_52152"/>
<feBlend mode="normal" in="SourceGraphic" in2="effect1_dropShadow_6912_52152" result="shape"/>
</filter>
<filter id="filter1_b_6912_52152" x="53.1274" y="57.6001" width="57.7456" height="57.7456" filterUnits="userSpaceOnUse" color-interpolation-filters="sRGB">
<feFlood flood-opacity="0" result="BackgroundImageFix"/>
<feGaussianBlur in="BackgroundImageFix" stdDeviation="4"/>
<feComposite in2="SourceAlpha" operator="in" result="effect1_backgroundBlur_6912_52152"/>
<feBlend mode="normal" in="SourceGraphic" in2="effect1_backgroundBlur_6912_52152" result="shape"/>
</filter>
<radialGradient id="paint0_radial_6912_52152" cx="0" cy="0" r="1" gradientUnits="userSpaceOnUse" gradientTransform="translate(65.3708 27.5245) rotate(67.3597) scale(123.64)">
<stop offset="0.469912" stop-color="#BAC3CE"/>
<stop offset="0.8125" stop-color="#F0AD2C"/>
</radialGradient>
<linearGradient id="paint1_linear_6912_52152" x1="231" y1="148.5" x2="92.9735" y2="-48.7184" gradientUnits="userSpaceOnUse">
<stop offset="0.446998" stop-color="#353E56"/>
<stop offset="0.93128" stop-color="#E6ECFB"/>
</linearGradient>
<clipPath id="clip0_6912_52152">
<rect width="20.8727" height="20.8727" fill="white" transform="translate(71.564 76.0366)"/>
</clipPath>
</defs>
</svg>
